<svg width="100%" height="100%" viewBox="0 0 125 126" fill="none" xmlns="http://www.w3.org/2000/svg">
<path d="M47.7619 67.6441C46.2456 66.9455 44.1142 66.5962 41.3793 66.5645H27.6655V83.6005H41.161C43.9355 83.6005 46.0829 83.2353 47.6349 82.4772C50.4253 81.088 51.8304 78.4325 51.8304 74.499C51.8304 71.1767 50.4769 68.8865 47.7619 67.6441Z" fill="#EBDDC3"/>
<path d="M47.9365 54.4063C49.6632 53.3545 50.5205 51.4849 50.5205 48.7898C50.5205 45.8168 49.3853 43.8441 47.0951 42.8955C45.1263 42.2405 42.6058 41.8992 39.5535 41.8992H27.6655V55.994H41.1809C43.9554 55.99 46.2059 55.4621 47.9365 54.4063Z" fill="#EBDDC3"/>
<path d="M89.3723 55.5813C86.2962 55.5813 83.9146 56.4704 82.2237 58.205C80.5288 59.9475 79.473 62.3052 79.0364 65.2901H99.6567C99.4225 62.1187 98.3627 59.7054 96.4495 58.0661C94.5562 56.4109 92.1945 55.5813 89.3723 55.5813Z" fill="#EBDDC3"/>
<path d="M0 0.246094V125.246H125V0.246094H0ZM76.4043 33.4529H102.129V39.8434H76.4043V33.4529V33.4529ZM62.4524 85.6011C61.2378 87.5937 59.7334 89.2687 57.9274 90.6262C55.8912 92.1901 53.4858 93.2618 50.7192 93.8333C47.9447 94.4129 44.936 94.6986 41.705 94.6986H12.9239V30.8094H43.7849C51.5567 30.9245 57.074 33.1791 60.3288 37.6127C62.2857 40.3317 63.2502 43.5825 63.2502 47.3612C63.2502 51.2789 62.2698 54.3987 60.2931 56.7684C59.2015 58.106 57.5781 59.3127 55.4307 60.4042C58.6816 61.6029 61.1465 63.4645 62.7937 66.0525C64.4529 68.6166 65.2825 71.7484 65.2825 75.4041C65.2864 79.1987 64.3576 82.6003 62.4524 85.6011ZM112.068 73.1892H78.7422C78.9288 77.7896 80.5125 81.0047 83.5291 82.8504C85.3431 84.0055 87.546 84.5651 90.1221 84.5651C92.849 84.5651 95.0479 83.8784 96.7627 82.4733C97.6915 81.7271 98.5052 80.6673 99.2157 79.3336H111.429C111.112 82.0526 109.643 84.7993 106.995 87.6056C102.907 92.0551 97.1636 94.2898 89.7887 94.2898C83.6919 94.2898 78.3254 92.3965 73.6655 88.6535C69.0215 84.8985 66.6796 78.7899 66.6796 70.3234C66.6796 62.3889 68.7754 56.3079 72.9788 52.0767C77.1982 47.8455 82.644 45.7338 89.3521 45.7338C93.3332 45.7338 96.9135 46.4443 100.117 47.8653C103.304 49.3022 105.94 51.5567 108.008 54.6448C109.893 57.3717 111.092 60.5193 111.663 64.1195C111.989 66.1954 112.128 69.2279 112.068 73.1892Z" fill="#EBDDC3"/>
</svg>
