<svg width="100%" height="100%" viewBox="0 0 26 25" fill="none" xmlns="http://www.w3.org/2000/svg">
<path d="M12.9353 6.08629C9.38607 6.08629 6.52164 8.95073 6.52164 12.5C6.52164 16.0493 9.38607 18.9137 12.9353 18.9137C16.4846 18.9137 19.3491 16.0493 19.3491 12.5C19.3491 8.95073 16.4846 6.08629 12.9353 6.08629ZM12.9353 16.6684C10.64 16.6684 8.76691 14.7953 8.76691 12.5C8.76691 10.2047 10.64 8.33156 12.9353 8.33156C15.2306 8.33156 17.1038 10.2047 17.1038 12.5C17.1038 14.7953 15.2306 16.6684 12.9353 16.6684ZM19.6117 4.32885C18.783 4.32885 18.1138 4.99806 18.1138 5.82674C18.1138 6.65543 18.783 7.32463 19.6117 7.32463C20.4404 7.32463 21.1096 6.65855 21.1096 5.82674C21.1099 5.62997 21.0713 5.43508 20.9961 5.25323C20.9209 5.07139 20.8106 4.90617 20.6714 4.76702C20.5323 4.62788 20.3671 4.51756 20.1852 4.44237C20.0034 4.36718 19.8085 4.32861 19.6117 4.32885ZM25.4375 12.5C25.4375 10.7738 25.4532 9.0633 25.3562 7.34026C25.2593 5.33891 24.8027 3.56271 23.3393 2.09922C21.8726 0.632607 20.0996 0.179176 18.0982 0.082235C16.372 -0.0147055 14.6615 0.000930141 12.9385 0.000930141C11.2123 0.000930141 9.50178 -0.0147055 7.77874 0.082235C5.77739 0.179176 4.00119 0.635734 2.5377 2.09922C1.07108 3.56584 0.617652 5.33891 0.520712 7.34026C0.423771 9.06643 0.439407 10.777 0.439407 12.5C0.439407 14.223 0.423771 15.9367 0.520712 17.6597C0.617652 19.6611 1.07421 21.4373 2.5377 22.9008C4.00431 24.3674 5.77739 24.8208 7.77874 24.9178C9.50491 25.0147 11.2154 24.9991 12.9385 24.9991C14.6646 24.9991 16.3752 25.0147 18.0982 24.9178C20.0996 24.8208 21.8758 24.3643 23.3393 22.9008C24.8059 21.4342 25.2593 19.6611 25.3562 17.6597C25.4563 15.9367 25.4375 14.2262 25.4375 12.5ZM22.6857 19.8737C22.4574 20.4429 22.1822 20.8682 21.7413 21.306C21.3004 21.7469 20.8782 22.0221 20.3091 22.2503C18.6642 22.9039 14.7585 22.7569 12.9353 22.7569C11.1122 22.7569 7.20335 22.9039 5.55849 22.2535C4.98936 22.0252 4.56407 21.75 4.12627 21.3091C3.68535 20.8682 3.41016 20.446 3.18188 19.8769C2.53145 18.2289 2.67842 14.3231 2.67842 12.5C2.67842 10.6769 2.53145 6.768 3.18188 5.12314C3.41016 4.55401 3.68535 4.12872 4.12627 3.69092C4.56719 3.25313 4.98936 2.97481 5.55849 2.74654C7.20335 2.0961 11.1122 2.24307 12.9353 2.24307C14.7585 2.24307 18.6673 2.0961 20.3122 2.74654C20.8813 2.97481 21.3066 3.25 21.7444 3.69092C22.1853 4.13185 22.4605 4.55401 22.6888 5.12314C23.3393 6.768 23.1923 10.6769 23.1923 12.5C23.1923 14.3231 23.3393 18.2289 22.6857 19.8737Z" fill="#EBDDC3"/>
</svg>
