<svg swidth="100%" height="100%" viewBox="0 0 26 26" fill="none" xmlns="http://www.w3.org/2000/svg">
<path d="M23.4291 0H2.44785C1.33848 0 0.438477 0.931035 0.438477 2.07866V23.7834C0.438477 24.931 1.33848 25.8621 2.44785 25.8621H23.4291C24.5385 25.8621 25.4385 24.931 25.4385 23.7834V2.07866C25.4385 0.931035 24.5385 0 23.4291 0ZM23.4291 23.7931C9.43535 23.7899 2.43848 23.7866 2.43848 23.7834C2.4416 9.30711 2.44473 2.06897 2.44785 2.06897C16.4416 2.0722 23.4385 2.07543 23.4385 2.07866C23.4354 16.555 23.4322 23.7931 23.4291 23.7931ZM4.14473 9.69504H7.8541V22.0377H4.14473V9.69504ZM6.00098 8.00754C7.18535 8.00754 8.15098 7.01185 8.15098 5.7834C8.15098 5.49133 8.09537 5.20211 7.98732 4.93226C7.87927 4.66242 7.7209 4.41723 7.52126 4.2107C7.32161 4.00417 7.0846 3.84034 6.82375 3.72857C6.5629 3.6168 6.28332 3.55927 6.00098 3.55927C5.71863 3.55927 5.43906 3.6168 5.17821 3.72857C4.91736 3.84034 4.68034 4.00417 4.4807 4.2107C4.28105 4.41723 4.12268 4.66242 4.01464 4.93226C3.90659 5.20211 3.85098 5.49133 3.85098 5.7834C3.84785 7.01185 4.81035 8.00754 6.00098 8.00754ZM13.8854 15.931C13.8854 14.3211 14.1822 12.7629 16.1104 12.7629C18.0104 12.7629 18.0385 14.6024 18.0385 16.0345V22.0377H21.7447V15.2683C21.7447 11.945 21.051 9.38793 17.2979 9.38793C15.4947 9.38793 14.2854 10.4127 13.7885 11.3825H13.7385V9.69504H10.1791V22.0377H13.8854V15.931Z" fill="#EBDDC3"/>
</svg>
