<svg width="63" height="62" viewBox="0 0 63 62" fill="none" xmlns="http://www.w3.org/2000/svg">
<path d="M15.4025 61.2003C25.5673 63.6175 34.6375 59.9328 38.3928 58.3507C42.1055 56.7867 47.9868 54.2348 53.4296 48.315C55.8064 45.7293 62.9984 37.9058 62.9984 26.385C62.9984 23.5943 63.1695 19.051 60.3885 14.4902C59.2146 12.5788 57.6981 10.8988 55.9147 9.53424C57.123 12.6253 57.836 15.8867 58.0275 19.1988C58.1762 21.7986 58.3966 26.3735 56.2876 31.4648C53.1272 39.092 46.7937 42.9272 43.9848 44.3501C38.0281 47.3675 32.557 47.2737 29.9422 47.1996C27.0776 47.1189 23.2233 47.0093 19.0064 44.9693C16.3343 43.6768 15.5299 42.5832 13.5385 42.3679C10.4021 42.0288 6.0732 43.6381 4.59086 47.3239C2.79301 51.7942 6.49697 56.0545 7.20068 56.8641C8.23466 58.0536 10.3513 59.9993 15.4025 61.2003Z" fill="#D5C99F"/>
<path d="M33.7943 42.4916C34.3291 43.4304 40.8938 42.1514 45.8489 37.7836C52.0604 32.3076 52.962 24.4273 53.3049 21.429C53.7237 17.7672 54.4187 11.6925 50.6956 6.31291C49.8754 5.12556 45.693 -0.914216 40.381 0.118308C37.5715 0.663464 34.562 3.16518 34.416 5.94166C34.2241 9.58057 39.1343 10.2484 42.245 16.5967C42.8464 17.8239 44.7602 21.8624 43.9848 26.7562C43.3932 30.4851 41.4887 33.1411 39.7598 35.5534C36.3872 40.2565 33.405 41.808 33.7943 42.4916Z" fill="#BB9A77"/>
<path d="M37.5223 15.5674C36.4604 15.2796 26.5357 11.1424 20.3329 15.5674C19.1119 16.4386 14.7961 20.1686 14.4861 26.4095C14.2012 32.1718 20.264 38.1303 20.9201 38.7682C19.1629 39.4192 17.2987 39.7356 15.4244 39.7009C11.0074 39.6072 6.76649 37.5514 4.19822 34.571C-0.769359 28.8082 -1.34403 18.8318 2.5584 13.0025C6.94529 6.45244 17.202 3.88476 25.0101 5.77427C33.0496 7.71939 36.8694 14.3828 37.5223 15.5674Z" fill="#A0AE8B"/>
<path d="M29.2199 35.8538C33.8052 35.8538 37.5223 32.1478 37.5223 27.5762C37.5223 23.0045 33.8052 19.2985 29.2199 19.2985C24.6346 19.2985 20.9174 23.0045 20.9174 27.5762C20.9174 32.1478 24.6346 35.8538 29.2199 35.8538Z" fill="#828282"/>
</svg>
