<svg width="100%" height="100%" viewBox="0 0 885 295" fill="none" xmlns="http://www.w3.org/2000/svg">
<path d="M295.004 0H0V294.925H295.004V0Z" fill="#D5C99F"/>
<path d="M252.821 165.652H0V240.648H252.821V165.652Z" fill="#BB9B75"/>
<path d="M140.509 38.7365C110.72 38.74 82.1518 50.5721 61.0876 71.6307C40.0233 92.6892 28.188 121.25 28.1844 151.031H252.834C252.831 121.25 240.995 92.6892 219.931 71.6307C198.867 50.5721 170.299 38.74 140.509 38.7365Z" fill="#F8E6C6"/>
<path d="M246.667 96.6481C273.363 96.6481 295.004 75.0127 295.004 48.3241C295.004 21.6354 273.363 0 246.667 0C219.971 0 198.33 21.6354 198.33 48.3241C198.33 75.0127 219.971 96.6481 246.667 96.6481Z" fill="#A0AE8B"/>
<path d="M590.009 0H295.004V294.925H590.009V0Z" fill="#F8E6C6"/>
<path d="M572.613 0H481.067V294.925H572.613V0Z" fill="#BB9B75"/>
<path d="M533.592 172.675C547.45 113.424 510.638 54.1611 451.37 40.3075C392.103 26.4538 332.824 63.2559 318.967 122.507C305.109 181.758 341.921 241.021 401.188 254.875C460.456 268.729 519.735 231.927 533.592 172.675Z" fill="#A0AE8B"/>
<path d="M885 0H589.996V294.925H885V0Z" fill="#A0AE8B"/>
<path d="M737.511 147.449L737.338 29.4418C672.644 29.535 619.459 82.786 619.459 147.449C619.459 212.112 672.737 265.469 737.511 265.469C802.285 265.469 855.55 212.205 855.55 147.449H737.511Z" fill="#BB9A77"/>
<path d="M848.544 33.6897H758.903V123.307H848.544V33.6897Z" fill="#F8E6C6"/>
<path d="M737.498 147.462H619.459V265.469H737.498V147.462Z" fill="#D5C99F"/>
</svg>
