<svg width="100%" height="100%" viewBox="0 0 885 296" fill="none" xmlns="http://www.w3.org/2000/svg">
<path d="M295.004 0.924561H0V295.849H295.004V0.924561Z" fill="#F8E6C6"/>
<path d="M0 0.911285V295.822H295.004C132.078 295.822 0 163.794 0 0.911285Z" fill="#BB9A77"/>
<path d="M0 0.911285C0 163.794 132.078 295.836 295.004 295.836C295.004 132.954 162.926 0.911285 0 0.911285Z" fill="#A0AE8B"/>
<path d="M184.66 195.007C210.349 174.475 214.526 137.011 193.989 111.328C173.452 85.6451 135.977 81.4693 110.288 102.001C84.598 122.533 80.421 159.997 100.958 185.68C121.495 211.363 158.97 215.538 184.66 195.007Z" fill="#F8E6C6"/>
<path d="M590.009 0.924561H295.004V295.849H590.009V0.924561Z" fill="#BB9B75"/>
<path d="M442.507 148.374C403.389 148.374 365.873 163.908 338.211 191.559C310.55 219.211 295.008 256.715 295.004 295.822H590.009C590.005 256.715 574.463 219.211 546.802 191.559C519.14 163.908 481.624 148.374 442.507 148.374Z" fill="#A0AE8B"/>
<path d="M442.507 189.906C428.591 189.905 414.812 192.643 401.956 197.966C389.1 203.289 377.418 211.092 367.579 220.928C357.74 230.765 349.935 242.443 344.611 255.296C339.286 268.149 336.547 281.924 336.549 295.836H548.465C548.466 281.924 545.727 268.149 540.403 255.296C535.078 242.443 527.274 230.765 517.434 220.928C507.595 211.092 495.913 203.289 483.057 197.966C470.201 192.643 456.422 189.905 442.507 189.906Z" fill="#F8E6C6"/>
<path d="M372.991 146.176C410.162 146.176 440.296 116.051 440.296 78.8902C440.296 41.7291 410.162 11.604 372.991 11.604C335.82 11.604 305.687 41.7291 305.687 78.8902C305.687 116.051 335.82 146.176 372.991 146.176Z" fill="#D5C99F"/>
<path d="M589.996 140.996L885 250.681V232.678L589.996 122.98V140.996Z" fill="#D5C99F"/>
<path d="M589.996 295.836H792.775L589.996 220.44V295.836Z" fill="#D5C99F"/>
<path d="M589.996 43.536L885 153.221V135.217L589.996 25.5327V43.536Z" fill="#D5C99F"/>
<path d="M737.498 0.924561L885 55.7602V0.924561H737.498Z" fill="#D5C99F"/>
<path d="M589.996 0.924561V25.5327L885 135.217V55.7602L737.498 0.924561H589.996Z" fill="#F8E6C6"/>
<path d="M589.996 122.98L885 232.678V153.221L589.996 43.536V122.98Z" fill="#A0AE8B"/>
<path d="M589.996 220.44L792.775 295.836H885V250.681L589.996 140.996V220.44Z" fill="#BB9B75"/>
</svg>
