<svg width="100%" height="100%" viewBox="0 0 886 317" fill="none" xmlns="http://www.w3.org/2000/svg">
<path d="M147.502 187.248C119.145 187.27 91.1488 180.884 65.6068 168.569C40.0648 156.253 17.6372 138.326 0 116.126V295.734H295.004V116.153C277.365 138.348 254.936 156.27 229.394 168.581C203.852 180.892 175.858 187.273 147.502 187.248Z" fill="#A0AE8B"/>
<path d="M147.502 187.248C175.86 187.27 203.856 180.884 229.398 168.569C254.94 156.253 277.367 138.326 295.004 116.126V0.822388H0V116.14C17.6385 138.337 40.0667 156.262 65.6087 168.575C91.1506 180.888 119.146 187.271 147.502 187.248Z" fill="#F8E6C6"/>
<path d="M147.502 187.248C118.724 187.251 91.1265 198.683 70.7788 219.027C50.4311 239.372 39 266.964 39 295.734H256.004C256.004 266.964 244.573 239.372 224.226 219.027C203.878 198.683 176.28 187.251 147.502 187.248Z" fill="#BB9B75"/>
<path d="M589.996 133.65V0.835815H482.239L388.615 162.946H295.004V295.76H402.761L496.385 133.65H589.996Z" fill="#D5C99F"/>
<path d="M589.996 133.65H496.385L402.761 295.76H589.996V133.65Z" fill="#A0AE8B"/>
<path d="M482.239 0.835815H295.004V162.946H388.615L482.239 0.835815Z" fill="#BB9B75"/>
<path d="M885.013 0.835815H590.009V295.76H885.013V0.835815Z" fill="#BB9A77"/>
<path d="M771.836 0.835815H703.173V295.76H771.836V0.835815Z" fill="#F8E6C6"/>
<path d="M818.455 214.825C855.207 214.825 885 185.04 885 148.298C885 111.556 855.207 81.7709 818.455 81.7709C781.703 81.7709 751.91 111.556 751.91 148.298C751.91 185.04 781.703 214.825 818.455 214.825Z" fill="#A0AE8B"/>
<path d="M656.541 133.89C693.293 133.89 723.086 104.105 723.086 67.3629C723.086 30.621 693.293 0.835815 656.541 0.835815C619.789 0.835815 589.996 30.621 589.996 67.3629C589.996 104.105 619.789 133.89 656.541 133.89Z" fill="#A0AE8B"/>
<path d="M681.859 290.94C715.859 276.992 732.112 238.129 718.161 204.138C704.209 170.146 665.336 153.897 631.335 167.845C597.334 181.793 581.081 220.656 595.033 254.647C608.985 288.639 647.858 304.888 681.859 290.94Z" fill="#A0AE8B"/>
</svg>
