<svg width="100%" height="100%" viewBox="0 0 507 480" fill="none" xmlns="http://www.w3.org/2000/svg">
<path d="M395 368H379V400H235V416H379V440C379 453.254 368.254 464 355 464H179C170.426 463.988 162.504 459.418 158.199 452L144.344 460C151.516 472.355 164.715 479.973 179 480H355C377.082 479.973 394.973 462.082 395 440V368Z" fill="#A0AE8B"/>
<path d="M259 432H275V448H259V432Z" fill="#A0AE8B"/>
<path d="M307 216V200H282.594C278.605 148.949 238.051 108.395 187 104.406V80H171V104.406C165.609 104.82 160.262 105.656 155 106.902V64H283V48H155V40C155 26.7461 165.746 16 179 16H355C360.844 16 366.488 18.1328 370.871 22L381.457 10C374.152 3.55078 364.742 -0.00390303 355 3.21601e-06H179C156.918 0.027347 139.027 17.918 139 40V112C102.977 127.09 78.4258 161.062 75.4062 200H51V216H75.4258C79.1992 267.148 119.852 307.828 171 311.633V336H187V311.633C238.148 307.828 278.801 267.148 282.574 216H307ZM171 280V295.633C159.84 294.629 148.98 291.492 139 286.398V272C139 249.91 156.91 232 179 232C201.09 232 219 249.91 219 272V286.398C209.023 291.5 198.16 294.641 187 295.656V280H171ZM155 192C155 178.746 165.746 168 179 168C192.254 168 203 178.746 203 192C203 205.254 192.254 216 179 216C165.746 216 155 205.254 155 192ZM237.664 273.602C236.801 274.398 235.879 275.039 235 275.777V272C234.98 251.102 223.324 231.953 204.77 222.336C217.621 211.512 222.336 193.809 216.574 178.027C210.812 162.242 195.801 151.742 179 151.742C162.199 151.742 147.188 162.242 141.426 178.027C135.664 193.809 140.379 211.512 153.23 222.336C134.676 231.953 123.02 251.102 123 272V275.816C122.113 275.09 121.191 274.406 120.336 273.641C103.758 258.773 93.4258 238.18 91.4258 216H107V200H91.4062C95.3164 157.766 128.766 124.316 171 120.406V136H187V120.406C229.234 124.316 262.684 157.766 266.594 200H251V216H266.574C264.574 238.18 254.242 258.773 237.664 273.641V273.602Z" fill="#A0AE8B"/>
<path d="M483 144C487.418 144 491 140.418 491 136V40C491 35.582 487.418 32 483 32H307C302.582 32 299 35.582 299 40V136C299 140.418 302.582 144 307 144H483ZM315 48H475V128H315V48Z" fill="#A0AE8B"/>
<path d="M331 64H363V80H331V64Z" fill="#D5C99F"/>
<path d="M379 64H459V80H379V64Z" fill="#D5C99F"/>
<path d="M331 96H459V112H331V96Z" fill="#D5C99F"/>
<path d="M481.586 160C475.391 160.012 469.414 162.285 464.785 166.398L395 227.922V160H379V240H381.312L335.801 280.16C306.191 281.855 283.035 306.34 283 336V350.113C283.031 358.051 278.543 365.32 271.426 368.84C268.102 370.496 266.355 374.223 267.207 377.836C268.059 381.449 271.285 384.004 275 384H331C360.66 383.965 385.145 360.809 386.84 331.199L500.648 202.223C507.254 194.73 508.859 184.062 504.746 174.957C500.637 165.852 491.574 160 481.586 160V160ZM331 368H294.414C297.434 362.523 299.012 356.367 299 350.113V336C299.027 315.16 315.027 297.82 335.801 296.129L370.871 331.199C369.184 351.973 351.84 367.977 331 368ZM488.648 191.641L378.641 316.32L350.68 288.367L475.359 178.352C479.09 175.078 484.719 175.262 488.23 178.77C491.738 182.281 491.922 187.91 488.648 191.641Z" fill="#A0AE8B"/>
<path d="M35 440H211C215.418 440 219 436.418 219 432V368C219 363.582 215.418 360 211 360H155V320H139V360H35C30.582 360 27 363.582 27 368V432C27 436.418 30.582 440 35 440ZM43 376H203V424H43V376Z" fill="#A0AE8B"/>
<path d="M59 392H99V408H59V392Z" fill="#D5C99F"/>
<path d="M115 392H187V408H115V392Z" fill="#D5C99F"/>
<path d="M35 112H115C119.418 112 123 108.418 123 104V40C123 35.582 119.418 32 115 32H35C30.582 32 27 35.582 27 40V104C27 108.418 30.582 112 35 112ZM43 48H107V96H43V48Z" fill="#A0AE8B"/>
<path d="M59 64H91V80H59V64Z" fill="#D5C99F"/>
</svg>
