<svg width="100%" height="100%" viewBox="0 0 512 450" fill="none" xmlns="http://www.w3.org/2000/svg">
<path d="M41.9221 43.583C51.9141 43.583 51.9301 28.583 41.9221 28.583C31.9301 28.583 31.9141 43.583 41.9221 43.583Z" fill="#D5C99F"/>
<path d="M68.7549 43.583C78.7469 43.583 78.7629 28.583 68.7549 28.583C58.7629 28.583 58.7469 43.583 68.7549 43.583Z" fill="#D5C99F"/>
<path d="M95.589 43.583C105.581 43.583 105.597 28.583 95.589 28.583C85.597 28.583 85.58 43.583 95.589 43.583Z" fill="#D5C99F"/>
<path d="M504.5 0H410.955C401.258 0 401.258 15 410.955 15H497V57.167H15V15H370.993C380.69 15 380.69 0 370.993 0H7.5C3.358 0 0 3.358 0 7.5V442.5C0 446.642 3.358 450 7.5 450H504.5C508.642 450 512 446.642 512 442.5V7.5C512 3.358 508.642 0 504.5 0ZM497 72.167V271.727H455.954V160C455.954 155.858 452.596 152.5 448.454 152.5H276.491C272.349 152.5 268.991 155.858 268.991 160V271.727H243.01V201.737C243.01 197.595 239.652 194.237 235.51 194.237H63.546C59.404 194.237 56.046 197.595 56.046 201.737V271.727H15V72.167H497ZM283.991 167.5H440.954V343.263H283.991V167.5ZM15 435V286.727H56.046V393.149C56.046 397.291 59.404 400.649 63.546 400.649H132.023C141.72 400.649 141.72 385.649 132.023 385.649H71.046V209.237H228.009V385.649H171.833C162.136 385.649 162.136 400.649 171.833 400.649H235.509C239.651 400.649 243.009 397.291 243.009 393.149V286.727H268.99V350.764C268.99 354.906 272.348 358.264 276.49 358.264H448.453C452.595 358.264 455.953 354.906 455.953 350.764V286.727H497V435H15Z" fill="#A0AE8B"/>
<path d="M63.5459 132.5H235.509C245.206 132.5 245.206 117.5 235.509 117.5H63.5459C53.8489 117.5 53.8489 132.5 63.5459 132.5V132.5Z" fill="#D5C99F"/>
<path d="M63.5459 167.5H183.213C192.91 167.5 192.91 152.5 183.213 152.5H63.5459C53.8489 152.5 53.8489 167.5 63.5459 167.5V167.5Z" fill="#D5C99F"/>
<path d="M448.454 385.648H346C336.303 385.648 336.303 400.648 346 400.648H448.454C458.151 400.648 458.151 385.648 448.454 385.648Z" fill="#D5C99F"/>
<path d="M415.121 132.5H448.454C458.151 132.5 458.151 117.5 448.454 117.5H415.121C405.423 117.5 405.423 132.5 415.121 132.5Z" fill="#D5C99F"/>
<path d="M333.569 197.253C301.517 213.191 288.406 252.232 304.343 284.285C320.042 315.859 359.7 329.259 391.375 313.511C423.427 297.574 436.538 258.532 420.601 226.479C404.664 194.427 365.623 181.316 333.569 197.253ZM384.697 300.079C360.421 312.152 329.801 301.794 317.776 277.606C305.521 252.96 315.602 222.939 340.249 210.685C364.378 198.538 394.872 208.274 407.17 233.158C419.424 257.803 409.343 287.824 384.697 300.079Z" fill="#D5C99F"/>
<path d="M338.333 230.5C328.681 230.5 328.665 245.5 338.333 245.5C347.985 245.5 348.001 230.5 338.333 230.5Z" fill="#A0AE8B"/>
<path d="M392.333 255.167C382.681 255.167 382.665 270.167 392.333 270.167C401.985 270.167 402.001 255.167 392.333 255.167Z" fill="#A0AE8B"/>
<path d="M366.333 276.5C356.681 276.5 356.665 291.5 366.333 291.5C375.985 291.5 376.001 276.5 366.333 276.5Z" fill="#A0AE8B"/>
<path d="M196.18 299.442C196.18 296.501 195.91 293.623 195.394 290.829L213.983 283.423C222.992 279.834 217.439 265.899 208.431 269.488L190.345 276.694C162.653 228.694 90.2619 256.988 103.071 311.467L85.0729 318.638C76.1989 322.174 81.9339 336.037 90.6249 332.573L109.156 325.189C134.693 364.217 195.772 346.698 196.18 299.442V299.442ZM116.522 299.442C116.832 266.856 159.105 255.154 176.256 282.308L117.161 305.853C116.743 303.781 116.522 301.637 116.522 299.442ZM148.851 331.771C138.585 331.771 129.422 326.961 123.496 319.476L181.052 296.544C182.709 315.115 167.553 331.771 148.851 331.771V331.771Z" fill="#D5C99F"/>
</svg>
