<svg width="100%" height="100%" viewBox="0 0 512 399" fill="none" xmlns="http://www.w3.org/2000/svg">
<path d="M422.248 196.398C422.248 210.56 433.769 222.081 447.931 222.081C452.288 222.081 456.393 220.987 459.991 219.065L466.871 225.945C468.335 227.409 470.255 228.142 472.174 228.142C474.093 228.142 476.013 227.41 477.477 225.945C480.406 223.016 480.406 218.267 477.477 215.339L470.597 208.459C472.519 204.861 473.613 200.756 473.613 196.399C473.613 182.237 462.092 170.716 447.93 170.716C433.768 170.716 422.248 182.237 422.248 196.398V196.398ZM458.614 196.398C458.614 199.194 457.526 201.735 455.761 203.641C455.658 203.733 455.552 203.821 455.453 203.92C455.354 204.019 455.267 204.125 455.174 204.229C453.268 205.993 450.727 207.082 447.931 207.082C442.04 207.082 437.248 202.29 437.248 196.399C437.248 190.508 442.04 185.716 447.931 185.716C453.822 185.716 458.614 190.508 458.614 196.398V196.398Z" fill="#D5C99F"/>
<path d="M504.5 138.388H483.97C479.828 138.388 476.47 141.746 476.47 145.888C476.47 150.03 479.828 153.388 483.97 153.388H497V245.468H440.259C440.236 245.468 440.213 245.468 440.19 245.468H404.92V153.388H440.332C440.34 153.388 440.348 153.39 440.356 153.39C440.365 153.39 440.375 153.388 440.384 153.388H448.97C453.112 153.388 456.47 150.03 456.47 145.888C456.47 141.746 453.112 138.388 448.97 138.388H445.898C433.566 100.08 409.348 65.6849 377.234 41.0649C342.53 14.4589 301.023 0.262889 257.2 0.00888889C256.348 -0.0111111 257.203 0.00888889 254.801 0.00888889C219.053 0.222889 184.044 10.0009 153.553 28.2859C150.001 30.4159 148.848 35.0229 150.978 38.5759C153.108 42.1279 157.714 43.2819 161.268 41.1509C175.285 32.7449 190.338 26.2879 205.995 21.8919C190.949 36.0269 177.93 56.5059 168 81.8209H113.951C120.104 74.4059 126.838 67.4279 134.155 60.9889C137.265 58.2519 137.567 53.5129 134.831 50.4039C132.095 47.2949 127.355 46.9909 124.246 49.7279C97.092 73.6239 77.075 104.185 66.097 138.388H7.5C3.358 138.388 0 141.746 0 145.888V252.968C0 257.11 3.358 260.468 7.5 260.468H66.102C78.434 298.776 102.652 333.171 134.766 357.791C169.47 384.397 210.976 398.593 254.801 398.847C255.19 398.85 255.384 398.868 257.2 398.847C301.024 398.593 342.531 384.397 377.235 357.791C409.349 333.171 433.567 298.776 445.899 260.468H504.5C508.642 260.468 512 257.11 512 252.968V145.888C512 141.746 508.642 138.388 504.5 138.388ZM397.42 138.388H359.407C356.871 123.611 353.478 109.701 349.339 96.8199H409.169C417.783 109.579 424.854 123.514 430.077 138.388H397.42ZM167.825 138.388C170.508 123.522 174.125 109.585 178.523 96.8199H248.5V138.388H167.825ZM263.5 96.8209H333.478C337.875 109.586 341.492 123.523 344.175 138.389H263.5V96.8209ZM263.5 15.6169C288.672 19.7259 311.803 44.3539 327.727 81.8209H263.5V15.6169ZM397.887 81.8209H344.002C334.113 56.6049 321.161 36.1909 306.199 22.0609C342.11 32.3399 374.134 53.3639 397.887 81.8209ZM248.5 15.6249V81.8209H184.275C200.192 44.3809 223.312 19.7609 248.5 15.6249ZM102.735 96.8209H162.662C158.522 109.701 155.13 123.612 152.593 138.389H81.94C87.1 123.659 94.089 109.707 102.735 96.8209ZM89.86 245.469H15V153.389H389.92V245.469H124.86C120.718 245.469 117.36 248.827 117.36 252.969C117.36 257.111 120.718 260.469 124.86 260.469H152.593C155.129 275.246 158.522 289.156 162.661 302.037H102.831C94.217 289.278 87.146 275.343 81.923 260.469H89.859C94.001 260.469 97.359 257.111 97.359 252.969C97.359 248.827 94.002 245.469 89.86 245.469V245.469ZM248.5 317.036V383.24C223.328 379.131 200.197 354.503 184.273 317.036H248.5ZM178.522 302.036C174.125 289.271 170.508 275.334 167.825 260.468H248.5V302.036H178.522ZM263.5 383.232V317.036H327.725C311.808 354.476 288.688 379.096 263.5 383.232ZM263.5 302.036V260.469H344.175C341.492 275.335 337.875 289.272 333.477 302.037H263.5V302.036ZM114.113 317.036H167.998C177.887 342.252 190.839 362.666 205.801 376.796C169.89 366.517 137.866 345.493 114.113 317.036V317.036ZM306.174 376.803C321.148 362.673 334.107 342.256 344 317.036H397.887C374.129 345.5 342.096 366.526 306.174 376.803ZM409.168 302.036H349.338C353.478 289.156 356.87 275.245 359.407 260.468H397.42H430.077C424.853 275.343 417.782 289.277 409.168 302.036Z" fill="#A0AE8B"/>
</svg>
